<svg xmlns="http://www.w3.org/2000/svg" width="1080" height="1350" viewBox="0 0 1080 1350">
  <rect width="1080" height="1350" fill="#0C0C0D"/>
  <g stroke="#FFFFFF" stroke-linecap="round"><line x1="914" y1="-93" x2="838" y2="596" stroke-opacity="0.066" stroke-width="3.6"/><line x1="113" y1="692" x2="61" y2="1165" stroke-opacity="0.122" stroke-width="2.8"/><line x1="418" y1="1045" x2="364" y2="1539" stroke-opacity="0.109" stroke-width="2.1"/><line x1="526" y1="1181" x2="467" y2="1720" stroke-opacity="0.077" stroke-width="2.7"/><line x1="787" y1="837" x2="721" y2="1436" stroke-opacity="0.158" stroke-width="3.6"/><line x1="520" y1="371" x2="497" y2="576" stroke-opacity="0.109" stroke-width="3.4"/><line x1="1051" y1="578" x2="976" y2="1264" stroke-opacity="0.064" stroke-width="2.6"/><line x1="614" y1="508" x2="541" y2="1172" stroke-opacity="0.105" stroke-width="2.4"/><line x1="591" y1="1182" x2="565" y2="1415" stroke-opacity="0.145" stroke-width="3.7"/><line x1="284" y1="-78" x2="240" y2="325" stroke-opacity="0.063" stroke-width="2.3"/><line x1="-191" y1="1080" x2="-253" y2="1645" stroke-opacity="0.070" stroke-width="3.4"/><line x1="328" y1="982" x2="293" y2="1302" stroke-opacity="0.123" stroke-width="2.1"/><line x1="196" y1="-206" x2="122" y2="465" stroke-opacity="0.103" stroke-width="2.5"/><line x1="789" y1="524" x2="720" y2="1154" stroke-opacity="0.132" stroke-width="2.2"/><line x1="-48" y1="860" x2="-79" y2="1146" stroke-opacity="0.119" stroke-width="3.6"/><line x1="1120" y1="138" x2="1055" y2="727" stroke-opacity="0.139" stroke-width="3.6"/><line x1="256" y1="236" x2="235" y2="426" stroke-opacity="0.111" stroke-width="3.5"/><line x1="698" y1="-217" x2="638" y2="331" stroke-opacity="0.142" stroke-width="3.1"/><line x1="66" y1="286" x2="13" y2="766" stroke-opacity="0.087" stroke-width="2.0"/><line x1="-213" y1="336" x2="-289" y2="1025" stroke-opacity="0.159" stroke-width="3.2"/><line x1="-17" y1="823" x2="-74" y2="1345" stroke-opacity="0.088" stroke-width="2.9"/><line x1="72" y1="236" x2="54" y2="402" stroke-opacity="0.125" stroke-width="3.8"/><line x1="287" y1="-98" x2="230" y2="417" stroke-opacity="0.078" stroke-width="3.6"/><line x1="-21" y1="701" x2="-84" y2="1270" stroke-opacity="0.060" stroke-width="3.6"/><line x1="707" y1="822" x2="681" y2="1060" stroke-opacity="0.132" stroke-width="2.6"/><line x1="392" y1="-206" x2="365" y2="39" stroke-opacity="0.131" stroke-width="3.8"/><line x1="719" y1="746" x2="690" y2="1009" stroke-opacity="0.092" stroke-width="3.2"/><line x1="211" y1="560" x2="140" y2="1204" stroke-opacity="0.118" stroke-width="2.6"/><line x1="962" y1="556" x2="891" y2="1206" stroke-opacity="0.115" stroke-width="3.6"/><line x1="240" y1="-210" x2="198" y2="169" stroke-opacity="0.093" stroke-width="2.9"/><line x1="-110" y1="260" x2="-132" y2="459" stroke-opacity="0.061" stroke-width="1.9"/><line x1="1012" y1="358" x2="943" y2="984" stroke-opacity="0.091" stroke-width="2.7"/><line x1="52" y1="1093" x2="-11" y2="1665" stroke-opacity="0.159" stroke-width="2.9"/><line x1="488" y1="168" x2="414" y2="842" stroke-opacity="0.139" stroke-width="3.9"/><line x1="-58" y1="-147" x2="-82" y2="73" stroke-opacity="0.085" stroke-width="3.3"/><line x1="174" y1="1149" x2="104" y2="1789" stroke-opacity="0.078" stroke-width="2.7"/><line x1="486" y1="439" x2="451" y2="760" stroke-opacity="0.146" stroke-width="2.6"/><line x1="-182" y1="1066" x2="-206" y2="1283" stroke-opacity="0.087" stroke-width="2.7"/><line x1="342" y1="1159" x2="281" y2="1712" stroke-opacity="0.156" stroke-width="3.6"/></g>
  
  <g transform="translate(96 132) scale(1.55)">
    <path d="M32 4c0 0 18 22.5 18 34.5a18 18 0 0 1-36 0C14 26.5 32 4 32 4Z" fill="#FFFFFF"/>
    <ellipse cx="25.4" cy="39" rx="4.3" ry="5.2" fill="#0C0C0D"/>
    <ellipse cx="38.6" cy="39" rx="4.3" ry="5.2" fill="#0C0C0D"/>
    <circle cx="25.4" cy="39.6" r="2.4" fill="#FFFFFF"/>
    <circle cx="38.6" cy="39.6" r="2.4" fill="#FFFFFF"/>
  </g>
    <text x="96" y="660" font-family="Newsreader, Georgia, serif" font-size="104" font-weight="400" fill="#FFFFFF" letter-spacing="-0.02em">“Light showers.”</text>
    <text x="96" y="770" font-family="Newsreader, Georgia, serif" font-size="104" font-weight="400" fill="#FFFFFF" letter-spacing="-0.02em">The two most</text>
    <text x="96" y="880" font-family="Newsreader, Georgia, serif" font-size="104" font-weight="400" fill="#FFFFFF" letter-spacing="-0.02em">optimistic words</text>
    <text x="96" y="990" font-family="Newsreader, Georgia, serif" font-size="104" font-weight="400" fill="#FFFFFF" letter-spacing="-0.02em">in the English</text>
    <text x="96" y="1100" font-family="Newsreader, Georgia, serif" font-size="104" font-weight="400" fill="#FFFFFF" letter-spacing="-0.02em">language.</text>
  <line x1="96" y1="1156" x2="984" y2="1156" stroke="#FFFFFF" stroke-opacity="0.22" stroke-width="2"/>
  <text x="96" y="1216" font-family="Archivo, Helvetica, Arial, sans-serif" font-size="34" font-weight="500" fill="#FFFFFF" fill-opacity="0.8">341 indoor places, rated by how wet you’ll get.</text>
  <text x="96" y="1272" font-family="Archivo, Helvetica, Arial, sans-serif" font-size="27" font-weight="700" letter-spacing="0.16em" fill="#FFFFFF">WETLONDON.CO.UK</text>
</svg>
