<svg xmlns="http://www.w3.org/2000/svg" width="1080" height="1350" viewBox="0 0 1080 1350">
  <rect width="1080" height="1350" fill="#1F43FF"/>
  <g stroke="#FFFFFF" stroke-linecap="round"><line x1="704" y1="479" x2="649" y2="980" stroke-opacity="0.112" stroke-width="2.0"/><line x1="728" y1="-115" x2="655" y2="545" stroke-opacity="0.191" stroke-width="3.0"/><line x1="759" y1="-48" x2="726" y2="248" stroke-opacity="0.145" stroke-width="2.7"/><line x1="1027" y1="538" x2="996" y2="816" stroke-opacity="0.162" stroke-width="1.9"/><line x1="-49" y1="590" x2="-79" y2="863" stroke-opacity="0.122" stroke-width="2.0"/><line x1="933" y1="620" x2="906" y2="869" stroke-opacity="0.132" stroke-width="3.1"/><line x1="780" y1="1079" x2="739" y2="1450" stroke-opacity="0.147" stroke-width="2.2"/><line x1="969" y1="1133" x2="931" y2="1481" stroke-opacity="0.090" stroke-width="3.7"/><line x1="739" y1="382" x2="707" y2="675" stroke-opacity="0.153" stroke-width="2.1"/><line x1="1122" y1="843" x2="1089" y2="1145" stroke-opacity="0.127" stroke-width="2.8"/><line x1="-32" y1="975" x2="-81" y2="1421" stroke-opacity="0.079" stroke-width="2.0"/><line x1="255" y1="827" x2="235" y2="1010" stroke-opacity="0.105" stroke-width="3.8"/><line x1="789" y1="628" x2="755" y2="938" stroke-opacity="0.187" stroke-width="2.8"/><line x1="496" y1="139" x2="478" y2="305" stroke-opacity="0.177" stroke-width="2.4"/><line x1="-47" y1="261" x2="-123" y2="950" stroke-opacity="0.119" stroke-width="3.0"/><line x1="456" y1="709" x2="421" y2="1024" stroke-opacity="0.105" stroke-width="2.6"/><line x1="-128" y1="-203" x2="-191" y2="369" stroke-opacity="0.099" stroke-width="2.2"/><line x1="437" y1="693" x2="415" y2="893" stroke-opacity="0.146" stroke-width="2.2"/><line x1="874" y1="1047" x2="800" y2="1716" stroke-opacity="0.167" stroke-width="3.8"/><line x1="-170" y1="850" x2="-222" y2="1325" stroke-opacity="0.160" stroke-width="3.0"/><line x1="178" y1="23" x2="125" y2="507" stroke-opacity="0.095" stroke-width="3.5"/><line x1="73" y1="-247" x2="22" y2="217" stroke-opacity="0.090" stroke-width="2.8"/><line x1="345" y1="1213" x2="271" y2="1885" stroke-opacity="0.089" stroke-width="3.8"/><line x1="377" y1="739" x2="329" y2="1177" stroke-opacity="0.126" stroke-width="2.2"/><line x1="154" y1="1103" x2="96" y2="1634" stroke-opacity="0.073" stroke-width="3.2"/><line x1="-107" y1="1089" x2="-167" y2="1634" stroke-opacity="0.128" stroke-width="2.4"/><line x1="478" y1="-32" x2="423" y2="468" stroke-opacity="0.079" stroke-width="4.0"/><line x1="290" y1="694" x2="263" y2="943" stroke-opacity="0.153" stroke-width="2.3"/><line x1="570" y1="-45" x2="515" y2="452" stroke-opacity="0.168" stroke-width="3.3"/><line x1="834" y1="901" x2="801" y2="1203" stroke-opacity="0.135" stroke-width="2.7"/><line x1="253" y1="1103" x2="225" y2="1358" stroke-opacity="0.199" stroke-width="2.7"/><line x1="1105" y1="1217" x2="1052" y2="1697" stroke-opacity="0.100" stroke-width="3.7"/><line x1="749" y1="1090" x2="723" y2="1324" stroke-opacity="0.144" stroke-width="2.2"/><line x1="1" y1="397" x2="-34" y2="714" stroke-opacity="0.115" stroke-width="2.6"/><line x1="905" y1="214" x2="867" y2="562" stroke-opacity="0.073" stroke-width="3.8"/><line x1="486" y1="485" x2="465" y2="677" stroke-opacity="0.122" stroke-width="3.3"/><line x1="1168" y1="998" x2="1142" y2="1230" stroke-opacity="0.172" stroke-width="3.5"/><line x1="946" y1="615" x2="919" y2="865" stroke-opacity="0.125" stroke-width="2.0"/><line x1="1000" y1="367" x2="935" y2="961" stroke-opacity="0.176" stroke-width="3.9"/></g>
  
  <g transform="translate(96 132) scale(1.55)">
    <path d="M32 4c0 0 18 22.5 18 34.5a18 18 0 0 1-36 0C14 26.5 32 4 32 4Z" fill="#FFFFFF"/>
    <ellipse cx="25.4" cy="39" rx="4.3" ry="5.2" fill="#1F43FF"/>
    <ellipse cx="38.6" cy="39" rx="4.3" ry="5.2" fill="#1F43FF"/>
    <circle cx="25.4" cy="39.6" r="2.4" fill="#FFFFFF"/>
    <circle cx="38.6" cy="39.6" r="2.4" fill="#FFFFFF"/>
  </g>
    <text x="96" y="728" font-family="Newsreader, Georgia, serif" font-size="88" font-weight="400" fill="#FFFFFF" letter-spacing="-0.02em">An umbrella keeps</text>
    <text x="96" y="821" font-family="Newsreader, Georgia, serif" font-size="88" font-weight="400" fill="#FFFFFF" letter-spacing="-0.02em">the top of your</text>
    <text x="96" y="914" font-family="Newsreader, Georgia, serif" font-size="88" font-weight="400" fill="#FFFFFF" letter-spacing="-0.02em">head dry while the</text>
    <text x="96" y="1007" font-family="Newsreader, Georgia, serif" font-size="88" font-weight="400" fill="#FFFFFF" letter-spacing="-0.02em">rest of you is</text>
    <text x="96" y="1100" font-family="Newsreader, Georgia, serif" font-size="88" font-weight="400" fill="#FFFFFF" letter-spacing="-0.02em">negotiated with.</text>
  <line x1="96" y1="1156" x2="984" y2="1156" stroke="#FFFFFF" stroke-opacity="0.22" stroke-width="2"/>
  <text x="96" y="1216" font-family="Archivo, Helvetica, Arial, sans-serif" font-size="34" font-weight="500" fill="#FFFFFF" fill-opacity="0.8">Find the places where it stays shut.</text>
  <text x="96" y="1272" font-family="Archivo, Helvetica, Arial, sans-serif" font-size="27" font-weight="700" letter-spacing="0.16em" fill="#FFFFFF">WETLONDON.CO.UK</text>
</svg>
