<svg xmlns="http://www.w3.org/2000/svg" width="1080" height="1350" viewBox="0 0 1080 1350">
  <rect width="1080" height="1350" fill="#FFFFFF"/>
  <g stroke="#0C0C0D" stroke-linecap="round"><line x1="25" y1="1222" x2="-10" y2="1543" stroke-opacity="0.047" stroke-width="3.9"/><line x1="718" y1="37" x2="664" y2="532" stroke-opacity="0.067" stroke-width="2.6"/><line x1="695" y1="740" x2="622" y2="1404" stroke-opacity="0.066" stroke-width="2.0"/><line x1="731" y1="515" x2="710" y2="702" stroke-opacity="0.068" stroke-width="3.2"/><line x1="465" y1="690" x2="432" y2="994" stroke-opacity="0.042" stroke-width="2.0"/><line x1="169" y1="312" x2="119" y2="770" stroke-opacity="0.069" stroke-width="3.4"/><line x1="905" y1="237" x2="829" y2="931" stroke-opacity="0.047" stroke-width="2.6"/><line x1="1068" y1="1177" x2="1002" y2="1780" stroke-opacity="0.041" stroke-width="1.9"/><line x1="904" y1="271" x2="871" y2="572" stroke-opacity="0.071" stroke-width="2.2"/><line x1="172" y1="438" x2="101" y2="1084" stroke-opacity="0.037" stroke-width="3.9"/><line x1="1154" y1="1029" x2="1115" y2="1386" stroke-opacity="0.037" stroke-width="3.3"/><line x1="226" y1="-62" x2="169" y2="456" stroke-opacity="0.072" stroke-width="2.4"/><line x1="-89" y1="798" x2="-144" y2="1296" stroke-opacity="0.067" stroke-width="2.8"/><line x1="39" y1="491" x2="-29" y2="1110" stroke-opacity="0.044" stroke-width="3.0"/><line x1="-173" y1="605" x2="-208" y2="927" stroke-opacity="0.060" stroke-width="3.8"/><line x1="459" y1="777" x2="430" y2="1039" stroke-opacity="0.083" stroke-width="2.3"/><line x1="-93" y1="1106" x2="-153" y2="1651" stroke-opacity="0.065" stroke-width="3.3"/><line x1="443" y1="447" x2="370" y2="1112" stroke-opacity="0.076" stroke-width="3.1"/><line x1="65" y1="246" x2="41" y2="467" stroke-opacity="0.086" stroke-width="2.1"/><line x1="293" y1="-216" x2="227" y2="387" stroke-opacity="0.086" stroke-width="3.0"/><line x1="799" y1="656" x2="725" y2="1332" stroke-opacity="0.057" stroke-width="1.8"/><line x1="560" y1="676" x2="492" y2="1294" stroke-opacity="0.058" stroke-width="2.4"/><line x1="464" y1="1156" x2="404" y2="1698" stroke-opacity="0.044" stroke-width="2.9"/><line x1="921" y1="406" x2="885" y2="736" stroke-opacity="0.053" stroke-width="1.8"/><line x1="574" y1="969" x2="498" y2="1664" stroke-opacity="0.068" stroke-width="1.9"/><line x1="945" y1="296" x2="870" y2="981" stroke-opacity="0.051" stroke-width="3.6"/><line x1="567" y1="350" x2="491" y2="1039" stroke-opacity="0.043" stroke-width="3.4"/><line x1="453" y1="831" x2="422" y2="1117" stroke-opacity="0.041" stroke-width="3.3"/><line x1="21" y1="1140" x2="-51" y2="1792" stroke-opacity="0.083" stroke-width="3.2"/><line x1="-217" y1="104" x2="-251" y2="413" stroke-opacity="0.036" stroke-width="3.3"/><line x1="935" y1="425" x2="888" y2="854" stroke-opacity="0.032" stroke-width="3.8"/><line x1="539" y1="593" x2="504" y2="909" stroke-opacity="0.033" stroke-width="2.5"/><line x1="1168" y1="495" x2="1089" y2="1209" stroke-opacity="0.078" stroke-width="2.8"/><line x1="62" y1="1078" x2="18" y2="1477" stroke-opacity="0.062" stroke-width="2.2"/><line x1="973" y1="1016" x2="947" y2="1252" stroke-opacity="0.052" stroke-width="3.2"/><line x1="459" y1="1142" x2="429" y2="1411" stroke-opacity="0.042" stroke-width="2.2"/><line x1="-37" y1="991" x2="-102" y2="1582" stroke-opacity="0.062" stroke-width="3.6"/><line x1="32" y1="531" x2="-33" y2="1120" stroke-opacity="0.078" stroke-width="2.7"/></g>
  
  <g transform="translate(96 132) scale(1.55)">
    <path d="M32 4c0 0 18 22.5 18 34.5a18 18 0 0 1-36 0C14 26.5 32 4 32 4Z" fill="#0C0C0D"/>
    <ellipse cx="25.4" cy="39" rx="4.3" ry="5.2" fill="#FFFFFF"/>
    <ellipse cx="38.6" cy="39" rx="4.3" ry="5.2" fill="#FFFFFF"/>
    <circle cx="25.4" cy="39.6" r="2.4" fill="#0C0C0D"/>
    <circle cx="38.6" cy="39.6" r="2.4" fill="#0C0C0D"/>
  </g>
    <text x="96" y="892" font-family="Newsreader, Georgia, serif" font-size="98" font-weight="400" fill="#0C0C0D" letter-spacing="-0.02em">The bus shelter</text>
    <text x="96" y="996" font-family="Newsreader, Georgia, serif" font-size="98" font-weight="400" fill="#0C0C0D" letter-spacing="-0.02em">is not a shelter.</text>
    <text x="96" y="1100" font-family="Newsreader, Georgia, serif" font-size="98" font-weight="400" fill="#0C0C0D" letter-spacing="-0.02em">It’s a suggestion.</text>
  <line x1="96" y1="1156" x2="984" y2="1156" stroke="#0C0C0D" stroke-opacity="0.22" stroke-width="2"/>
  <text x="96" y="1216" font-family="Archivo, Helvetica, Arial, sans-serif" font-size="34" font-weight="500" fill="#0C0C0D" fill-opacity="0.8">Search 341 places with an actual roof.</text>
  <text x="96" y="1272" font-family="Archivo, Helvetica, Arial, sans-serif" font-size="27" font-weight="700" letter-spacing="0.16em" fill="#0C0C0D">WETLONDON.CO.UK</text>
</svg>
